
<svg height="1000" width="1000" viewBox="2500 2500 7500 7500" xmlns="http://www.w3.org/2000/svg">

  <path d="M 5000 5000 h 1009 v -286 h -371 v -985 h 372 v 887 h 311 v -609 h -180 v 986 h -901 v 592 h 298 v -955 h 681 v 68 h 453 v -654 h -898 v -498 h 365 v 863 h -974 v -333 h -267 v 230 h 706 v 67 h -814 v 280 h 931 v 539 h 217 v -384 h -314 v 162 h -280 v -484 h -915 v 512 h -974 v 220 h 292 v -465 h -976 v -837 h 28 v -68 h -98 v 177 h -780 v -732 h 696 v 412 h -715 v -993 h -617 v -999 h 304 v 277 h 889 v 604 h 199 v -498 h 302 v -958 h 443 v -957 h 453 v -362 h 704 v -301 h 813 v -404 h -150 v 673 h -407 v 233 h -901 v 965 h 602 v -615 h 496 v -467 h 849 v -530 h -205 v 43 h 709 v -127 h -35 v -801 h -565 v 890 h 90 v 763 h 95 v 542 h 84 v 421 h -298 v 58 h 794 v -722 h 205 v -830 h -149 v 759 h -950 v 708 h -727 v -401 h -187 v 598 h -390 v 469 h 375 v -985 h -723 v -63 h -983 v 39 h -160 v -276 h 822 v 504 h -298 v 484 h -425 v -228 h -984 v 623 h -936 v -624 h -851 v 748 h -266 v 576 h -898 v -783 h -374 v 276 h 757 v -89 h -649 v -73 h -447 v 11 h -539 v -291 h -507 v -208 h 167 v 874 h -596 v 235 h 334 v -328 h 41 v 212 h -544 v 72 h -972 v 790 h -282 v -662 h 452 v -892 h -830 v 86 h -252 v -701 h -215 v -179 h -480 v -963 h -897 v -489 h 223 v -757 h 804 v -373 h 844 v 518 h 145 v -304 h -24 v 988 h 605 v 644 h 415 v -34 h -889 v 827 h 854 v -836 h 837 v 334 h -664 v 883 h -900 v -448 h 152 v -473 h 243 v 147 h -711 v -642 h 757 v -272 h 192 v -741 h -522 v -785 h -872 v 128 h -161 v 347 h -967 v 295 h 831 v -535 h 329 v 752 h 720 v 806 h 897 v 320 h 391 v 737 h -719 v -652 h -54 v 271 h -855 v 112 h 382 v -959 h 909 v 687 h -699 v -892 h -96 v 537 h -365 v 182 h 886 v -566 h 929 v -532 h -255 v -823 h 833 v -542 h 234 v 339 h 409 v -100 h -466 v -572 h -162 v -843 h -635 v 153 h -704 v 317 h -534 v -205 h 611 v 672 h -462 v 506 h -243 v -509 h -819 v 787 h 448 v 353 h 162 v -108 h 850 v 919 h 259 v -877 h 50 v 733 h -875 v -106 h -890 v 275 h -904 v -849 h -855 v -314 h -291 v -170 h -627 v -608 h 783 v -404 h 294" fill="transparent" stroke="green"/>

  <path d=" M 5000 5000 h -1010 v 347 h 554 v -465 h -30 v 816 h 891 v 778 h 184 v -253 h 694 v -346 h -743 v 298 h -956 v -703 h 528 v 16 h -404 v 818 h -640 v 50 h 534 v 99 h -555 v -974 h -779 v 774 h -690 v -19 h 973 v 588 h -631 v -35 h -410 v 332 h -74 v 858 h 213 v -889 h 977 v -803 h -624 v -627 h 601 v -499 h -213 v -692 h -234 v -401 h -894 v -733 h 414 v 431 h 712 v 284 h 965 v 624 h 848 v 17 h 86 v 285 h 502 v -516 h -709 v -343 h -558 v 615 h -150 v 590 h 113 v 887 h 469 v -584 h -434 v 9 h -994 v 704 h 740 v 541 h 95 v -219 h -634 v 184 h 714 v -81 h -426 v 437 h 927 v -232 h -361 v 756 h 685 v 206 h 116 v -844 h 807 v -811 h -382 v 338 h -660 v 997 h -551 v 294 h -895 v 208 h 37 v 90 h 44 v 131 h 77 v -883 h 449 v 24 h 441 v -659 h 826 v -259 h 98 v 548 h 118 v 470 h -259 v -170 h 518 v -731 h -287 v -191 h -45 v 672 h -691 v -117 h 156 v -308 h 230 v -112 h -938 v -644 h 911 v -110 h -1 v -162 h 943 v -433 h 98 v -610 h 428 v -231 h 35 v -590 h 554 v -612 h 191 v -261 h 793 v -3 h 507 v -632 h -571 v 535 h 30 v -281 h -613 v -199 h 168 v 948 h 486 v -913 h 534 v -131 h 974 v -399 h -525 v 174 h -595 v 567 h -394 v 969 h -779 v -346 h -969 v 943 h -845 v 727 h 128 v -241 h -616 v -117 h 791 v 419 h -913 v 949 h 628 v 738 h 776 v 294 h -175 v 708 h 568 v -484 h 589 v 930 h -416 v 114 h -823 v -16 h 260 v -450 h 534 v 94 h 695 v 982 h 186 v 422 h -789 v 886 h -761 v -30 h 182 v -930 h -483 v -863 h -318 v -343 h -380 v -650 h 542 v -92 h -339 v 390 h -55 v -343 h -641 v 556 h 616 v -936 h 118 v 997 h 936 v 979 h -594 v -326 h -975 v -52 h -89 v -679 h -91 v 969 h 878 v 798 h 193 v 858 h 95 v 989 h 389 v -960 h 106 v 564 h 48 v 151 h -121 v 241 h -369 v 476 h -24 v 229 h 601 v -849 h -632 v -894 h 27 v -200 h -698 v -788 h -330 v 73 h 405 v 526 h -154 v -942 h -504 v 579 h -815 v 643 h -81 v -172 h 879 v -28 h 715 v -367 h -366 v 964 h 16 v 415 h -501 v 176 h 641 v -523 h -979 v 556 h 831" fill="transparent" stroke="red"/>

</svg>
